<svg xmlns="http://www.w3.org/2000/svg" xmlns:xlink="http://www.w3.org/1999/xlink" viewBox="1018 134.285 129.934 138.606">
  <defs>
    <style>
      .cls-1 {
        fill: #3b5998;
      }

      .cls-2 {
        filter: url(#forme);
      }
    </style>
    <filter id="forme" x="1018" y="134.285" width="129.934" height="138.606" filterUnits="userSpaceOnUse">
      <feOffset input="SourceAlpha"/>
      <feGaussianBlur stdDeviation="5" result="blur"/>
      <feFlood flood-opacity="0.212"/>
      <feComposite operator="in" in2="blur"/>
      <feComposite in="SourceGraphic"/>
    </filter>
  </defs>
  <g class="cls-2" transform="matrix(1, 0, 0, 1, 0, 0)">
    <path id="forme-2" data-name="forme" class="cls-1" d="M99.934,38.561V69.945A23.079,23.079,0,0,1,88.372,89.767L61.117,105.459a22.368,22.368,0,0,1-22.712,0L26.016,98.026,11.563,89.767H11.15A22.7,22.7,0,0,1,0,69.945V38.561a20.105,20.105,0,0,1,.413-4.955,21.139,21.139,0,0,1,4.13-8.672,20.556,20.556,0,0,1,7.02-6.194L38.817,3.047a22.368,22.368,0,0,1,22.712,0L88.785,18.739A23.2,23.2,0,0,1,99.934,38.561Z" transform="translate(1033 149.33)"/>
  </g>
</svg>
